PathFileType	4	(X/Y/Z)	C:\Users\chris\Documents\GitHub\baseballds\vids\pitch4_Sports2D\pitch4_Sports2D_m_person00.trc
DataRate	CameraRate	NumFrames	NumMarkers	Units	OrigDataRate	OrigDataStartFrame	OrigNumFrames
30	30	11	22	m	30	119	238
Frame#	Time	Hip			RHip			RKnee			RAnkle			RBigToe			RSmallToe			RHeel			LHip			LKnee			LAnkle			LBigToe			LSmallToe			LHeel			Neck			Head			Nose			RShoulder			RElbow			RWrist			LShoulder			LElbow			LWrist		
		X1	Y1	Z1	X2	Y2	Z2	X3	Y3	Z3	X4	Y4	Z4	X5	Y5	Z5	X6	Y6	Z6	X7	Y7	Z7	X8	Y8	Z8	X9	Y9	Z9	X10	Y10	Z10	X11	Y11	Z11	X12	Y12	Z12	X13	Y13	Z13	X14	Y14	Z14	X15	Y15	Z15	X16	Y16	Z16	X17	Y17	Z17	X18	Y18	Z18	X19	Y19	Z19	X20	Y20	Z20	X21	Y21	Z21	X22	Y22	Z22
119	3.966666666666667	0.8475989997802678	0.7994614595538316	0.0	0.8100371603679585	0.7944321211898946	0.0	0.7465306729272153	0.3722145884690142	0.0	0.4602425667674037	0.041751208571381586	0.0	0.625682754531658	-0.12400784366144943	0.0	0.571046312348887	-0.11844874603052248	0.0	0.39260884083011405	0.0131182486530177	0.0	0.8954905163870139	0.762130943094565	0.0	0.7595324498185249	0.3943875274295187	0.0	0.5650004549970539	0.11584461452751481	0.0	0.7020606230216215	-0.041348242428500416	0.0	0.6899558688452122	0.0019270007606378326	0.0	0.5007006521561852	0.09192736243422292	0.0	1.185017316082836	1.2904841999482535	0.0	1.3497959568966462	1.4830843882075813	0.0	1.3743396018118632	1.3114580896021246	0.0	1.0643280167342901	1.236363771695416	0.0	0.8896973375795686	0.9757354653351075	0.0	1.1390957838944304	0.8557860891371809	0.0	1.1739436630033515	1.192398420537119	0.0	1.0445664549295632	0.9661912071622384	0.0	1.1467977020356976	0.8603902355097877	0.0
120	4.0	0.8469925630903054	0.7992265033114858	0.0	0.8102012248721019	0.7917092950998476	0.0	0.7450118282174994	0.3700897979120056	0.0	0.4598578807862795	0.03823088783653273	0.0	0.6289041792866573	-0.12343932918933774	0.0	0.5755386883696337	-0.11940399091763029	0.0	0.3928104276801065	0.009275126431618543	0.0	0.8932607973980061	0.7628201603570686	0.0	0.759504065210904	0.3926920806535022	0.0	0.5632028059499339	0.11417180519232502	0.0	0.7014167771329135	-0.04479637578107887	0.0	0.6891256842017656	-0.0010588714080524352	0.0	0.4963265596658258	0.08933160992969955	0.0	1.18288760922902	1.2884139533601442	0.0	1.3475879556025294	1.4796002410672822	0.0	1.3714335572448135	1.3091933697576765	0.0	1.0655520594849388	1.2350192152907387	0.0	0.8905753958928523	0.9747368724581861	0.0	1.1395173481184429	0.8556120213915371	0.0	1.1694088947108952	1.1928011209489253	0.0	1.044253393571772	0.9633046114864224	0.0	1.142317685340681	0.8574966031621192	0.0
121	4.033333333333333	0.8473157343409566	0.7969013241049789	0.0	0.8104715975802925	0.7885652696675044	0.0	0.7428545042996832	0.36825185898937823	0.0	0.4584991246547083	0.03433718021440981	0.0	0.6295374683757666	-0.12422148513848724	0.0	0.5781067680614781	-0.1213228824205976	0.0	0.3912561135623817	0.005631410072588886	0.0	0.8932951660008357	0.7618049392822805	0.0	0.7577423202670042	0.3917007870438206	0.0	0.561021627876717	0.11180161219674915	0.0	0.7000159919815667	-0.04878756241878922	0.0	0.6893578228907187	-0.0027046407777939064	0.0	0.49248325736739307	0.08656966983347342	0.0	1.1804714656722406	1.2877718837869885	0.0	1.3455903532617854	1.4748518937269062	0.0	1.3681184607979986	1.305150553513737	0.0	1.0651279498265944	1.2341347663953048	0.0	0.8914642597004229	0.9720145530477353	0.0	1.1422076473243739	0.8554040803652965	0.0	1.1667608226896058	1.1935605730293228	0.0	1.0414504867850147	0.9593101624024359	0.0	1.145491365277718	0.8558171452603326	0.0
122	4.066666666666666	0.8473512986829504	0.7935075206559407	0.0	0.8101938443158965	0.7868137989272211	0.0	0.7411904087717519	0.36743117397825115	0.0	0.4576654143983931	0.03150393245988176	0.0	0.6282046129146734	-0.125399856031447	0.0	0.5772847903544513	-0.12231210966236496	0.0	0.3897906718717317	0.003710813552581567	0.0	0.8953240018541264	0.7601173589023107	0.0	0.755551891087933	0.39112574273697137	0.0	0.5597995529692482	0.10974717034381523	0.0	0.6998282693762443	-0.04812933882451825	0.0	0.6904788483838339	-0.0008780543617154473	0.0	0.49224942284026657	0.08485879789109835	0.0	1.1786722335980062	1.2880506545378207	0.0	1.3447884183195786	1.4720100428670049	0.0	1.364130644553148	1.3010659842730536	0.0	1.0649166117958535	1.2350024377871425	0.0	0.8915403137552549	0.9700558639412684	0.0	1.1451475026819078	0.8551281652904261	0.0	1.1669824447224078	1.193102990936424	0.0	1.0364830561042386	0.9563466426086782	0.0	1.1524005377794526	0.8547966958319835	0.0
123	4.1	0.8461436958079015	0.7910775688968368	0.0	0.8097898084589537	0.7855402077975829	0.0	0.7405276393169299	0.3669146956575149	0.0	0.458199427539804	0.030029513689540144	0.0	0.6286582721703486	-0.1257434596709548	0.0	0.5763161472395572	-0.12271456717082502	0.0	0.3895512284482067	0.0037041199980823447	0.0	0.8958309052759552	0.7585783721002173	0.0	0.7530020133994875	0.3906107856385343	0.0	0.5613645276751124	0.11043401765531106	0.0	0.7009910957716509	-0.04126751397604836	0.0	0.6921393313000584	0.005048909321318253	0.0	0.49542493727165926	0.08480657716946154	0.0	1.1775447428731782	1.2876933283816099	0.0	1.3445873670837143	1.4716497386693643	0.0	1.3606211094183922	1.298274010153116	0.0	1.0659930802622004	1.2361622961639638	0.0	0.8916874579101568	0.9691672176600656	0.0	1.1454976038175544	0.8553081824641223	0.0	1.1667902591908823	1.191246302767877	0.0	1.0293267634836063	0.9558155100876136	0.0	1.155881742886053	0.8534482282631776	0.0
124	4.133333333333333	0.8444595629069226	0.7898361345346646	0.0	0.8089556996677123	0.7835572115385568	0.0	0.7404591480086207	0.36571939923028063	0.0	0.45861510736303435	0.02942859371638114	0.0	0.629566257837889	-0.12696237326980914	0.0	0.5764379814538153	-0.12478987088362904	0.0	0.38876575595994833	0.004206391104239631	0.0	0.8933983893616985	0.7557671921677385	0.0	0.7502977173228819	0.389253652635818	0.0	0.5642865369550792	0.11245649440391323	0.0	0.7022454841866963	-0.034859201272936305	0.0	0.6940115762901147	0.009693020184069229	0.0	0.49903314648824115	0.0853573991856259	0.0	1.1771965230159784	1.286833937003736	0.0	1.3437249390202073	1.4711057347781542	0.0	1.3595529948648495	1.2969740917711572	0.0	1.0658618909605955	1.2358518273812291	0.0	0.8926582500265623	0.9675022296989455	0.0	1.143196474080722	0.8552166431388314	0.0	1.164188398331079	1.1890913563726229	0.0	1.0234752717201003	0.9564356542495024	0.0	1.1573038663048238	0.8530710493364373	0.0
125	4.166666666666667	0.8436177059479112	0.788797158554019	0.0	0.80797401575115	0.7821668743519585	0.0	0.7394374052518078	0.36440770600554634	0.0	0.4578684653762933	0.029634905056727143	0.0	0.6283595549876818	-0.12881448250717598	0.0	0.5763663330759612	-0.12755031468492847	0.0	0.38671873359690445	0.003966757157867879	0.0	0.8909340064495708	0.7520392809834696	0.0	0.7494347873861215	0.38712642385115625	0.0	0.5644350259973806	0.11145120898692434	0.0	0.7028961127612938	-0.035501141431923	0.0	0.6947508710408897	0.007705219861325424	0.0	0.4985984400978418	0.08482497685296532	0.0	1.1771971670392267	1.2865049274856843	0.0	1.341712462041534	1.4697993144783899	0.0	1.3591488384720452	1.296900387014758	0.0	1.062920882599019	1.2347835323598841	0.0	0.8937337367167582	0.9651801710498537	0.0	1.141056896793897	0.8541340074366541	0.0	1.1608600565830687	1.188239647050252	0.0	1.0237974317129575	0.9570480657782574	0.0	1.1592441693557507	0.8553490295222251	0.0
126	4.2	0.8437887939808921	0.7881061697060643	0.0	0.8083501934076603	0.7826824163509577	0.0	0.7371383020890159	0.36450683582074567	0.0	0.45718901399801376	0.030192761422119643	0.0	0.6277699205815527	-0.12808723324631766	0.0	0.5762020337552084	-0.12786838873604378	0.0	0.3855829620937416	0.0029753029336470186	0.0	0.8907870637289358	0.7507473040720924	0.0	0.7512703462587134	0.3861442390108569	0.0	0.5617739727898271	0.10760094067914178	0.0	0.7033580682207639	-0.04024100915501869	0.0	0.6935801732912461	0.002938730775408508	0.0	0.4939350427934733	0.08313396460320664	0.0	1.1761744701433479	1.2866279130211384	0.0	1.338688939809568	1.469143891897636	0.0	1.3560210700949096	1.297427260596809	0.0	1.059914756542655	1.233463390010434	0.0	0.8936738114762393	0.9637394765031287	0.0	1.141592690018988	0.853302591505627	0.0	1.159059026348197	1.1882717117788353	0.0	1.027465789974787	0.9568280126841803	0.0	1.1603354986903607	0.8579294562169189	0.0
127	4.233333333333333	0.8440501042859289	0.7881972506138549	0.0	0.8094203130566208	0.7834241333679988	0.0	0.7353705123966813	0.3655730540758398	0.0	0.45794060608500736	0.02987230839291666	0.0	0.6309393834053411	-0.12585764998280782	0.0	0.577630523996771	-0.12640683827420257	0.0	0.3871290655826661	0.0014049365365212522	0.0	0.8914211348886852	0.7523956632021904	0.0	0.7534767128112362	0.38677777088793136	0.0	0.5598143947936955	0.10510266844784948	0.0	0.7036438805997728	-0.04288403900893683	0.0	0.6916669705618126	0.0016264793379735755	0.0	0.48908454976358323	0.0810740392982376	0.0	1.1738821762623015	1.2868549397329971	0.0	1.3350073815855485	1.4688774610801372	0.0	1.3517266966803405	1.2975621297415212	0.0	1.0595959584729688	1.2318890564074678	0.0	0.8923347837537324	0.9632677404292388	0.0	1.1438132066325895	0.8540767549386129	0.0	1.1592120905951413	1.1874096213129421	0.0	1.0278758830116967	0.9549654046539545	0.0	1.1593528716556372	0.8567245256168219	0.0
128	4.266666666666667	0.8437071199342057	0.7883685696102518	0.0	0.8082064627910844	0.7820032397431713	0.0	0.7349233066211471	0.3653143211849562	0.0	0.4593791809902673	0.028635396967039487	0.0	0.6329410630128306	-0.12647668019194203	0.0	0.5789482752936198	-0.12618834856963074	0.0	0.38925157730037285	-0.0006923052202939185	0.0	0.8909071576667134	0.7530179724170927	0.0	0.753368702397567	0.3869207186819299	0.0	0.5592994211084865	0.10548262143052702	0.0	0.7022727674876068	-0.04301386081528883	0.0	0.6901264860874293	0.0027756226225364084	0.0	0.4865638337465346	0.07962212388540067	0.0	1.1722908859984993	1.2870789306535355	0.0	1.3322795102768679	1.4678171894806156	0.0	1.350501627433188	1.2964218877785005	0.0	1.0602916239833373	1.2317182793931334	0.0	0.8910077939760198	0.9630830873649328	0.0	1.144903277026159	0.8547454634528249	0.0	1.1601010963871181	1.1860486521091713	0.0	1.0254762430242683	0.9526560727957859	0.0	1.1562812869897183	0.8522400929163294	0.0
129	4.3	0.8432022523131776	0.7881313725929656	0.0	0.8047007427681219	0.7796742922098552	0.0	0.7347392999219017	0.3632860650704485	0.0	0.4599226107449854	0.027446320750232622	0.0	0.6285023241772771	-0.12972081189705734	0.0	0.5770048413138228	-0.12717332737164577	0.0	0.38845430746827786	-0.0027132165784761355	0.0	0.8899867759460748	0.7510912995267869	0.0	0.751705594082574	0.3853859132916536	0.0	0.5596921870372573	0.10748520689150078	0.0	0.7001225362206469	-0.04129079629146348	0.0	0.690154634344176	0.004173045223227921	0.0	0.48790334111205497	0.08072650930392249	0.0	1.1728872390664873	1.28654468846383	0.0	1.3319008719494536	1.4659473490748391	0.0	1.3524434361903788	1.2944856239848064	0.0	1.059590616290155	1.2339502393176587	0.0	0.8911254258079937	0.9630515516488449	0.0	1.144315711501295	0.8532596176941779	0.0	1.1597984027444361	1.1856148736162044	0.0	1.0247368931564673	0.95200691628001	0.0	1.1530308018104405	0.8492591569269732	0.0
